<svg width="3072" height="3456" viewBox="0 0 3072 3456" fill="none" xmlns="http://www.w3.org/2000/svg">
<g clip-path="url(#clip0_2018_1024)">
<rect opacity="0.2" x="3072" y="3456" width="3072" height="3456" transform="rotate(-180 3072 3456)" fill="#D9D9D9"/>
<rect x="-82" y="-100" width="3236" height="3678" fill="#080225"/>
<rect width="3660" height="3456" fill="url(#paint0_linear_2018_1024)"/>
<path d="M1933.89 1550.72L1943.84 1453.99L1956.74 1450.53L2013.58 1529.35L2001.9 1532.47L1986.28 1511.27L1948.04 1521.52L1945.1 1547.7L1933.81 1550.72H1933.89ZM1948.69 1510.75L1980.4 1502.27L1953.14 1464.29L1948.69 1510.75Z" fill="#0057FF"/>
<path d="M1999.99 1438.98L2010.89 1436.08L2034.38 1523.81L2023.48 1526.76L1999.95 1439.02L1999.99 1438.98Z" fill="#0057FF"/>
<path d="M1833.57 1283.4L1843.35 1277.73L1888.77 1356.42L1878.99 1362.09L1833.57 1283.4Z" fill="#0057FF"/>
<path d="M1935.54 1286.86L1953.97 1318.79L1944.75 1324.11L1926.67 1292.74C1919.79 1280.84 1910.66 1277.73 1900.67 1283.48C1889.9 1289.71 1887.95 1301.44 1895.44 1314.37L1912 1343.01L1902.79 1348.33L1869.7 1291.01L1877.66 1286.43L1883.37 1293.48C1884.19 1287.16 1887.73 1279.72 1897.38 1274.14C1910.32 1266.7 1924.64 1267.87 1935.58 1286.86H1935.54Z" fill="#0057FF"/>
<path d="M1926.62 1258.14L1936.96 1252.17L1933.29 1245.76C1927.45 1235.64 1928.92 1228.37 1939.6 1222.19L1950.07 1216.13L1954.92 1224.56L1945.01 1230.28C1940.38 1232.91 1939.82 1235.81 1942.33 1240.18L1946.13 1246.8L1962.31 1237.46L1967.16 1245.89L1950.98 1255.24L1979.23 1304.12L1970.01 1309.44L1941.81 1260.56L1931.47 1266.53L1926.62 1258.09V1258.14Z" fill="#0057FF"/>
<path d="M1998.09 1216.86L2003.28 1225.86L1998.65 1228.54C1986.63 1235.47 1989.14 1247.36 1994.41 1256.49L2011.29 1285.69L2002.07 1291.01L1968.98 1233.69L1976.94 1229.11L1983.17 1237.07C1983.34 1231.14 1985.24 1224.31 1995.5 1218.42L1998.09 1216.95V1216.86Z" fill="#0057FF"/>
<path d="M2085.86 1231.4L2090.7 1239.84L2085.64 1242.73C2077.99 1247.15 2073.53 1245.37 2070.16 1239.84C2069.55 1247.1 2066.35 1254.76 2056.44 1260.47C2043.85 1267.74 2031.7 1266.4 2025.64 1255.93C2019.02 1244.47 2023.3 1233.43 2038.36 1224.74L2055.23 1215L2052.98 1211.07C2048.7 1203.67 2040.83 1202.2 2031.83 1207.39C2023.74 1212.06 2020.54 1218.98 2022.79 1225.47L2013.57 1230.79C2008.42 1218.77 2013.7 1206.87 2027.54 1198.91C2042.17 1190.47 2054.8 1192.9 2062.54 1206.31L2076.99 1231.36C2078.76 1234.39 2080.32 1234.52 2082.92 1233.04L2085.82 1231.36L2085.86 1231.4ZM2059.77 1222.79L2041.99 1233.04C2033.77 1237.76 2030.92 1243.47 2034.68 1250C2037.93 1255.63 2044.98 1256.67 2052.59 1252.25C2064.06 1245.63 2066.87 1235.16 2061.33 1225.6L2059.69 1222.79H2059.77Z" fill="#0057FF"/>
<path d="M2094 1212.75C2098.23 1219.29 2107.06 1220.8 2116.58 1215.31C2124.67 1210.63 2128.39 1203.84 2125.36 1198.56C2121.21 1191.38 2114.59 1194.45 2105.46 1198.35C2091.75 1204.19 2080.02 1207.48 2073.14 1195.58C2067.13 1185.11 2072.71 1172.74 2085.69 1165.38C2098.8 1157.99 2111.73 1158.59 2119.52 1169.97L2110.09 1175.42C2106.02 1169.97 2098.11 1168.71 2090.23 1173.26C2082.23 1177.84 2078.81 1184.33 2081.84 1189.65C2085.47 1195.93 2092.01 1193.24 2100.92 1189.44C2114.85 1183.47 2126.74 1179.92 2134.05 1192.64C2140.2 1203.32 2133.84 1215.87 2121.12 1223.18C2106.28 1231.75 2092.05 1230.66 2084.52 1218.25L2093.95 1212.8L2094 1212.75Z" fill="#0057FF"/>
<path d="M2129.95 1151.98L2119.61 1157.95L2114.76 1149.51L2125.1 1143.54L2115.8 1127.45L2125.02 1122.12L2134.32 1138.22L2149.16 1129.65L2154 1138.09L2139.16 1146.65L2158.67 1180.48C2161.48 1185.33 2164.21 1186.15 2169.14 1183.3L2178.23 1178.06L2183.07 1186.5L2173.08 1192.25C2162.05 1198.61 2155.34 1196.06 2149.5 1185.94L2129.9 1151.98H2129.95Z" fill="#0057FF"/>
<path d="M2187.14 1107.72L2192.33 1116.71L2187.7 1119.4C2175.67 1126.32 2178.18 1138.22 2183.46 1147.34L2200.33 1176.55L2191.12 1181.87L2158.02 1124.55L2165.98 1119.96L2172.21 1127.92C2172.38 1121.99 2174.29 1115.16 2184.54 1109.27L2187.14 1107.8V1107.72Z" fill="#0057FF"/>
<path d="M2235.25 1079.94L2244.46 1074.62L2277.55 1131.94L2269.59 1136.57L2263.93 1129.65C2263.02 1135.88 2259.86 1143.1 2250.43 1148.55C2237.84 1155.82 2223.74 1154.52 2212.79 1135.53L2194.36 1103.6L2203.58 1098.28L2221.71 1129.65C2228.58 1141.55 2237.63 1144.75 2247.14 1139.21C2257.61 1133.15 2259.3 1121.56 2251.81 1108.62L2235.25 1079.98V1079.94Z" fill="#0057FF"/>
<path d="M2271.62 1097.33C2261.5 1079.81 2265.96 1061.34 2282.61 1051.73C2296.67 1043.64 2310.08 1046.37 2319.73 1057.58L2310.08 1063.16C2303.98 1056.49 2295.72 1055.11 2287.28 1060C2276.25 1066.36 2273.92 1079.42 2281.1 1091.88C2288.28 1104.34 2300.65 1108.62 2311.68 1102.26C2319.9 1097.51 2322.8 1089.55 2320.38 1081.2L2330.16 1075.57C2335.04 1089.24 2330.24 1102.48 2316.31 1110.53C2299.57 1120.17 2282.01 1115.2 2271.67 1097.33H2271.62Z" fill="#0057FF"/>
<path d="M2327.51 1037.89L2317.17 1043.86L2312.33 1035.42L2322.67 1029.45L2313.37 1013.4L2322.58 1008.08L2331.84 1024.17L2346.68 1015.61L2351.52 1024.04L2336.68 1032.61L2356.24 1066.44C2359.01 1071.29 2361.73 1072.11 2366.71 1069.25L2375.79 1064.02L2380.64 1072.45L2370.64 1078.21C2359.61 1084.57 2352.91 1082.02 2347.07 1071.89L2327.47 1037.93L2327.51 1037.89Z" fill="#0057FF"/>
<path d="M2395.74 987.315L2404.95 981.994L2438.05 1039.32L2430.09 1043.9L2424.42 1036.98C2423.51 1043.21 2420.35 1050.43 2410.92 1055.88C2398.33 1063.15 2384.23 1061.85 2373.29 1042.86L2354.86 1010.94L2364.07 1005.61L2382.16 1036.98C2389.03 1048.88 2398.08 1052.08 2407.64 1046.54C2418.1 1040.53 2419.79 1028.89 2412.31 1015.95L2395.78 987.315H2395.74Z" fill="#0057FF"/>
<path d="M2446.65 957.898L2451.84 966.896L2447.22 969.535C2435.19 976.501 2437.7 988.354 2442.98 997.482L2459.85 1026.68L2450.63 1032.01L2417.54 974.684L2425.5 970.098L2431.73 978.058C2431.9 972.131 2433.8 965.296 2444.06 959.412L2446.65 957.898Z" fill="#0057FF"/>
<path d="M2465.86 985.023C2455.78 967.589 2459.93 949.332 2476.11 939.988C2492.29 930.643 2508.77 934.753 2519.03 951.495C2519.76 952.75 2520.41 954.134 2521.06 955.562L2476.55 981.259L2477.02 982.038C2483.64 992.724 2494.93 996.444 2505.83 990.128C2513.92 985.456 2517.77 977.539 2515.39 969.016L2524.74 963.652C2529.11 976.414 2524.52 990.301 2511.28 997.958C2494.07 1007.87 2476.03 1002.59 2465.9 985.023H2465.86ZM2507 953.485C2500.38 944.097 2490.47 942.497 2480.91 948.034C2472.48 952.88 2468.24 963.435 2472.74 973.299L2507 953.485Z" fill="#0057FF"/>
<path d="M1706.52 1133.5L1714.52 1125.5L1742.42 1153.4L1775.65 1120.18L1747.74 1092.27L1755.7 1084.27L1819.94 1148.51L1811.98 1156.52L1783 1127.53L1749.78 1160.76L1778.76 1189.74L1770.76 1197.74L1706.52 1133.5Z" fill="#0057FF"/>
<path d="M1868.18 1086.52L1875.05 1093.4L1870.94 1097.51C1864.72 1103.74 1859.91 1103.22 1855.24 1098.72C1856.54 1105.86 1855.41 1114.12 1847.37 1122.21C1837.07 1132.51 1824.96 1134.32 1816.44 1125.8C1807.09 1116.46 1808.35 1104.69 1820.68 1092.4L1834.43 1078.65L1831.23 1075.44C1825.18 1069.39 1817.17 1070.04 1809.86 1077.35C1803.24 1083.97 1801.94 1091.5 1805.84 1097.16L1798.31 1104.69C1790.22 1094.39 1792.25 1081.54 1803.55 1070.3C1815.49 1058.36 1828.33 1057.45 1839.23 1068.35L1859.7 1088.81C1862.16 1091.28 1863.72 1091.02 1865.84 1088.9L1868.22 1086.52H1868.18ZM1840.75 1084.96L1826.26 1099.46C1819.55 1106.16 1818.3 1112.39 1823.62 1117.71C1828.2 1122.3 1835.25 1121.48 1841.53 1115.25C1850.87 1105.9 1850.87 1095.04 1843.09 1087.26L1840.79 1084.96H1840.75Z" fill="#0057FF"/>
<path d="M1857.84 1017.04L1865.2 1024.4L1861.44 1028.16C1851.61 1037.98 1857.11 1048.8 1864.55 1056.24L1888.39 1080.12L1880.86 1087.64L1834.05 1040.83L1840.58 1034.3L1848.67 1040.36C1847.29 1034.56 1847.38 1027.51 1855.72 1019.16L1857.84 1017.04Z" fill="#0057FF"/>
<path d="M1881.16 958.852L1888.68 951.324L1952.93 1015.57L1946.39 1022.1L1937.87 1015.57C1939.08 1023.01 1937.78 1031.79 1929.91 1039.71C1916.98 1052.64 1898.72 1053.47 1883.49 1038.24C1869.17 1023.92 1869.09 1004.75 1882.02 991.817C1889.89 983.944 1898.46 981.824 1905.77 983.468L1881.2 958.895L1881.16 958.852ZM1922.25 999.777C1911.96 989.481 1898.59 988.573 1889.42 997.744C1880.25 1006.92 1880.98 1020.33 1891.15 1030.49C1901.36 1040.66 1914.64 1041.52 1923.9 1032.22C1933.16 1022.92 1932.25 1009.73 1922.25 999.734V999.777Z" fill="#0057FF"/>
<path d="M1911.96 962.92L1919.83 955.046L1969.58 981.479L1943.8 931.079L1950.76 924.114L2000.51 950.547L1974.64 900.277L1982.26 892.663L2013.45 955.046L2005.19 963.309L1959.11 939.818L1982.13 986.324L1973.87 994.587L1911.92 962.92H1911.96Z" fill="#0057FF"/>
<path d="M2070.07 884.616L2076.95 891.495L2072.8 895.648C2066.57 901.878 2061.81 901.315 2057.1 896.859C2058.39 903.997 2057.27 912.26 2049.22 920.35C2038.93 930.647 2026.81 932.464 2018.29 923.941C2008.95 914.597 2010.2 902.829 2022.53 890.543L2036.29 876.786L2033.09 873.584C2027.03 867.528 2019.03 868.177 2011.72 875.488C2005.1 882.107 2003.84 889.635 2007.69 895.302L2000.16 902.829C1992.08 892.533 1994.11 879.684 2005.4 868.436C2017.34 856.496 2030.19 855.588 2041.09 866.533L2061.55 886.996C2064.02 889.461 2065.57 889.202 2067.69 887.082L2070.07 884.703V884.616ZM2042.65 883.059L2028.15 897.551C2021.45 904.257 2020.15 910.487 2025.47 915.808C2030.06 920.394 2037.11 919.572 2043.38 913.342C2052.73 903.997 2052.73 893.139 2044.94 885.352L2042.65 883.059Z" fill="#0057FF"/>
<path d="M2059.74 815.139L2067.09 822.493L2063.33 826.257C2053.51 836.077 2059 846.893 2066.44 854.334L2090.28 878.214L2082.75 885.742L2035.95 838.933L2042.48 832.4L2050.57 838.457C2049.18 832.66 2049.27 825.608 2057.62 817.259L2059.74 815.139Z" fill="#0057FF"/>
<path d="M2085.31 836.336C2071.07 822.103 2070.34 803.371 2083.57 790.176C2096.77 776.981 2113.77 776.678 2128 790.176C2129 791.171 2130.04 792.382 2131.03 793.55L2094.69 829.89L2095.34 830.539C2104.51 839.148 2116.37 839.797 2125.28 830.885C2131.9 824.266 2133.54 815.657 2129.04 808.043L2136.66 800.429C2144.18 811.634 2143.36 826.213 2132.55 837.029C2118.49 851.089 2099.71 850.613 2085.39 836.293L2085.31 836.336ZM2116.89 795.238C2108.06 787.883 2098.07 788.921 2090.28 796.709C2083.4 803.587 2082.02 814.878 2088.9 823.228L2116.89 795.238Z" fill="#0057FF"/>
<path d="M1619.95 1073.46L1558.61 998.007L1565.27 986.413L1661.22 1001.94L1655.21 1012.41L1629.17 1008.48L1609.35 1042.74L1625.79 1063.33L1619.95 1073.46ZM1602.17 1034.69L1618.57 1006.27L1572.45 998.699L1602.17 1034.74V1034.69Z" fill="#0057FF"/>
<path d="M1630.29 923.122L1635.61 913.907L1692.93 947.002L1688.3 955.006L1679.95 951.805C1682.28 957.645 1683.15 965.475 1677.7 974.95C1670.43 987.539 1657.58 993.466 1638.59 982.477L1606.67 964.048L1611.99 954.833L1643.35 972.916C1655.25 979.795 1664.68 978.021 1670.17 968.504C1676.18 958.034 1671.86 947.132 1658.92 939.691L1630.29 923.165V923.122Z" fill="#0057FF"/>
<path d="M1653.9 901.71L1647.93 912.05L1639.5 907.205L1645.47 896.865L1629.42 887.564L1634.74 878.349L1650.83 887.65L1659.4 872.812L1667.83 877.657L1659.27 892.496L1693.1 912.007C1697.94 914.819 1700.71 914.17 1703.57 909.195L1708.8 900.11L1717.24 904.955L1711.44 914.948C1705.08 925.98 1697.99 927.105 1687.86 921.265L1653.9 901.667V901.71Z" fill="#0057FF"/>
<path d="M1691.16 883.925C1673.72 873.888 1668.57 855.286 1678.22 838.543C1687.87 821.801 1706.56 816.999 1723.99 827.036C1741.43 837.116 1746.57 855.675 1736.93 872.417C1727.24 889.16 1708.59 893.962 1691.16 883.925ZM1718.54 836.51C1706.3 829.458 1693.02 831.968 1686.44 843.302C1679.91 854.637 1684.36 867.442 1696.61 874.494C1708.85 881.589 1722.13 879.036 1728.71 867.702C1735.24 856.367 1730.78 843.562 1718.54 836.51Z" fill="#0057FF"/>
<path d="M1775.12 728.314L1808.17 747.392L1802.85 756.607L1770.36 737.874C1759.11 731.385 1750.42 732.943 1745.44 741.595C1739.91 751.156 1743.76 761.149 1755.44 767.898L1786.11 785.592L1780.79 794.807L1748.3 776.075C1737.05 769.585 1728.31 771.273 1723.25 780.055C1717.8 789.486 1722.34 799.782 1733.81 806.401L1764.05 823.879L1758.73 833.094L1701.41 799.998L1706.03 791.995L1714.6 795.283C1712.18 789.832 1710.62 782.477 1715.72 773.609C1720.31 765.648 1727.88 760.846 1737.05 761.798C1732.9 754.747 1731.73 745.835 1737.61 735.625C1744.49 723.728 1756.99 717.887 1775.08 728.357L1775.12 728.314Z" fill="#0057FF"/>
<path d="M1784.77 721.738C1767.33 711.702 1762.19 693.099 1771.83 676.357C1781.48 659.615 1800.17 654.813 1817.6 664.849C1835.04 674.929 1840.18 693.489 1830.54 710.231C1820.85 726.973 1802.2 731.775 1784.77 721.738ZM1812.15 674.324C1799.91 667.272 1786.63 669.781 1780.05 681.116C1773.48 692.45 1777.98 705.256 1790.22 712.307C1802.46 719.402 1815.74 716.85 1822.32 705.515C1828.85 694.181 1824.39 681.375 1812.15 674.324Z" fill="#0057FF"/>
<path d="M1805.54 639.022L1799.57 649.362L1791.13 644.517L1797.1 634.177L1781.05 624.876L1786.37 615.661L1802.47 624.962L1811.03 610.124L1819.47 614.969L1810.9 629.808L1844.73 649.319C1849.58 652.131 1852.34 651.439 1855.2 646.507L1860.43 637.422L1868.87 642.267L1863.07 652.26C1856.71 663.292 1849.62 664.417 1839.5 658.577L1805.54 638.979V639.022Z" fill="#0057FF"/>
<path d="M1799.82 593.468C1796.32 591.478 1795.36 587.455 1797.31 584.08C1799.26 580.706 1803.24 579.538 1806.7 581.571C1810.2 583.604 1811.15 587.584 1809.21 590.959C1807.26 594.333 1803.28 595.501 1799.82 593.468ZM1816.17 601.255L1821.49 592.04L1878.81 625.136L1873.49 634.35L1816.17 601.255Z" fill="#0057FF"/>
<path d="M1825.44 585.158L1831.15 575.251L1887.99 584.985L1851.05 540.728L1856.63 531.081L1901.53 585.634L1895.13 596.752L1825.44 585.115V585.158Z" fill="#0057FF"/>
<path d="M1886.65 545.272C1869.21 535.236 1863.68 517.325 1873.02 501.145C1882.37 484.966 1898.68 480.293 1915.94 489.638C1917.19 490.373 1918.44 491.238 1919.74 492.147L1894.05 536.663L1894.82 537.139C1905.94 543.109 1917.54 540.643 1923.81 529.741C1928.48 521.651 1927.83 512.869 1921.52 506.683L1926.92 497.338C1937.09 506.207 1940.08 520.527 1932.42 533.765C1922.51 550.983 1904.21 555.396 1886.65 545.272ZM1906.51 497.382C1896.08 492.58 1886.69 496.127 1881.2 505.688C1876.35 514.124 1877.91 525.372 1886.74 531.645L1906.51 497.382Z" fill="#0057FF"/>
<path d="M1559.6 2361.4C1549.47 2368.28 1547.27 2380.52 1554.19 2392.54C1560.29 2403.1 1569.46 2407.86 1578.03 2402.93C1587.8 2397.3 1584.26 2386.44 1579.41 2373.38C1574.22 2359.45 1570.84 2344.01 1586.12 2335.18C1599.48 2327.44 1614.75 2333.19 1623.97 2349.11C1634.09 2366.63 1630.54 2383.07 1616.92 2392.16L1611.08 2382.03C1619.51 2375.67 1621.29 2364.9 1615.1 2354.22C1609.17 2344.01 1600.74 2339.72 1592.3 2344.61C1582.87 2350.06 1586.46 2360.7 1591.26 2373.68C1596.54 2387.74 1599.83 2403.36 1584.56 2412.19C1570.97 2420.02 1554.79 2414.09 1545.23 2397.56C1534.16 2378.36 1538.57 2360.79 1553.76 2351.27L1559.6 2361.4Z" fill="#0057FF"/>
<path d="M1595.94 2417.59C1613.37 2407.51 1632.01 2412.36 1641.71 2429.1C1651.4 2445.84 1646.2 2464.4 1628.77 2474.48C1611.34 2484.56 1592.69 2479.72 1583 2462.98C1573.31 2446.23 1578.5 2427.67 1595.94 2417.59ZM1623.32 2465.01C1635.56 2457.96 1640.02 2445.15 1633.49 2433.82C1626.95 2422.48 1613.63 2419.93 1601.39 2427.03C1589.14 2434.08 1584.69 2446.88 1591.22 2458.22C1597.8 2469.55 1611.08 2472.1 1623.32 2465.01Z" fill="#0057FF"/>
<path d="M1659.62 2461.72L1665.59 2472.06L1671.99 2468.34C1682.12 2462.5 1689.43 2463.97 1695.57 2474.65L1701.58 2485.12L1693.15 2489.97L1687.44 2480.06C1684.8 2475.48 1681.9 2474.87 1677.53 2477.38L1670.91 2481.23L1680.26 2497.41L1671.82 2502.26L1662.48 2486.08L1613.59 2514.28L1608.27 2505.07L1657.16 2476.86L1651.19 2466.52L1659.62 2461.68V2461.72Z" fill="#0057FF"/>
<path d="M1680.08 2516.62L1674.11 2506.28L1682.55 2501.44L1688.52 2511.78L1704.61 2502.48L1709.93 2511.69L1693.84 2520.99L1702.4 2535.83L1693.97 2540.68L1685.4 2525.84L1651.57 2545.35C1646.73 2548.12 1645.9 2550.84 1648.76 2555.82L1653.99 2564.9L1645.56 2569.75L1639.81 2559.75C1633.45 2548.72 1636 2542.02 1646.12 2536.18L1680.08 2516.58V2516.62Z" fill="#0057FF"/>
<path d="M1704.39 2539.28L1709.97 2548.93L1671.56 2590.12L1726.89 2578.26L1731.82 2586.78L1693.4 2627.97L1748.69 2615.99L1754.1 2625.33L1685.74 2639.3L1679.9 2629.18L1714.51 2590.76L1663.6 2600.97L1657.76 2590.85L1704.35 2539.2L1704.39 2539.28Z" fill="#0057FF"/>
<path d="M1739.08 2712.29L1730.65 2717.14L1727.75 2712.07C1723.33 2704.42 1725.11 2699.96 1730.65 2696.59C1723.42 2695.98 1715.72 2692.78 1710.01 2682.87C1702.74 2670.28 1704.13 2658.13 1714.55 2652.07C1726.02 2645.45 1737.05 2649.73 1745.74 2664.79L1755.48 2681.66L1759.41 2679.41C1766.81 2675.13 1768.28 2667.25 1763.09 2658.26C1758.42 2650.17 1751.5 2646.97 1745.01 2649.21L1739.69 2640C1751.71 2634.85 1763.61 2640.13 1771.57 2653.97C1780.01 2668.6 1777.58 2681.23 1764.17 2688.97L1739.12 2703.42C1736.1 2705.2 1735.97 2706.75 1737.44 2709.35L1739.12 2712.25L1739.08 2712.29ZM1747.69 2686.2L1737.44 2668.42C1732.68 2660.2 1727.01 2657.35 1720.48 2661.11C1714.86 2664.36 1713.82 2671.41 1718.23 2679.02C1724.85 2690.49 1735.32 2693.3 1744.88 2687.76L1747.69 2686.12V2686.2Z" fill="#0057FF"/>
<path d="M1808.86 2720.25L1799.86 2725.45L1797.18 2720.82C1790.25 2708.79 1778.36 2711.3 1769.23 2716.58L1740.03 2733.45L1734.71 2724.23L1792.03 2691.14L1796.61 2699.1L1788.65 2705.33C1794.58 2705.5 1801.42 2707.4 1807.3 2717.66L1808.81 2720.25H1808.86Z" fill="#0057FF"/>
<path d="M1781.78 2739.5C1799.22 2729.47 1817.47 2733.58 1826.82 2749.76C1836.16 2765.94 1832.05 2782.42 1815.31 2792.67C1814.05 2793.41 1812.67 2794.06 1811.24 2794.71L1785.54 2750.19L1784.77 2750.67C1774.04 2757.29 1770.36 2768.58 1776.68 2779.48C1781.35 2787.57 1789.27 2791.38 1797.79 2789.04L1803.19 2798.38C1790.43 2802.75 1776.55 2798.17 1768.89 2784.93C1758.98 2767.75 1764.26 2749.67 1781.82 2739.55L1781.78 2739.5ZM1813.32 2780.65C1822.71 2774.03 1824.31 2764.12 1818.77 2754.56C1813.92 2746.12 1803.37 2741.88 1793.5 2746.38L1813.27 2780.65H1813.32Z" fill="#0057FF"/>
<path d="M1758.64 2282.58C1744.4 2296.81 1726.23 2294.04 1714.21 2282.01C1699.89 2267.69 1700.88 2250.17 1711.44 2238.32L1719.05 2245.93C1712.35 2254.11 1711.79 2265.83 1721.09 2275.13C1728.61 2282.66 1740.73 2284.69 1750.63 2274.79C1759.33 2266.09 1759.89 2254.33 1750.98 2245.41C1747.04 2241.48 1738.04 2234.68 1727.66 2239.53L1720.39 2231.92L1759.03 2197.52L1797.48 2235.98L1790.43 2243.03L1759.07 2211.63L1737.31 2230.44C1745.92 2229.71 1752.93 2233.73 1758.85 2239.7C1771.44 2252.29 1771.35 2269.81 1758.59 2282.58H1758.64Z" fill="#0057FF"/>
<path d="M1775.98 2278.64C1795.45 2259.17 1820.67 2258.01 1839.32 2276.61C1853.55 2290.84 1856.02 2309.83 1845.03 2325.23L1836.51 2316.71C1843.21 2305.59 1841.57 2293.48 1831.83 2283.75C1818.34 2270.25 1799.08 2271.89 1784.2 2286.77C1769.32 2301.66 1767.68 2320.91 1781 2334.23C1792.86 2346.09 1808.43 2347.56 1819.81 2336.18L1822.01 2333.97L1802.76 2314.68L1810.12 2307.32L1837.2 2334.41L1802.42 2369.19L1795.54 2362.31L1804.36 2352.4C1796.75 2354.13 1784.64 2352.49 1773.6 2341.5C1755.78 2323.68 1756.65 2298.11 1776.07 2278.64H1775.98Z" fill="#0057FF"/>
<path d="M1846.68 2092.18C1841.35 2103.22 1845.55 2114.9 1857.58 2121.86C1868.13 2127.96 1878.47 2127.48 1883.4 2118.92C1889.07 2109.14 1880.55 2101.53 1869.82 2092.62C1858.36 2083.14 1847.71 2071.46 1856.54 2056.19C1864.24 2042.82 1880.33 2040.14 1896.3 2049.35C1913.82 2059.48 1918.96 2075.48 1911.7 2090.15L1901.57 2084.31C1905.73 2074.58 1901.83 2064.37 1891.15 2058.22C1880.94 2052.3 1871.46 2052.86 1866.62 2061.29C1861.17 2070.73 1869.6 2078.17 1880.25 2086.99C1891.84 2096.51 1902.52 2108.41 1893.7 2123.68C1885.87 2137.26 1868.87 2140.2 1852.34 2130.69C1833.14 2119.57 1828.16 2102.22 1836.55 2086.34L1846.68 2092.18Z" fill="#0057FF"/>
<path d="M1996.4 2168.93L1977.32 2201.98L1968.1 2196.66L1986.84 2164.17C1993.32 2152.92 1991.77 2144.23 1983.12 2139.25C1973.55 2133.71 1963.56 2137.56 1956.81 2149.24L1939.12 2179.92L1929.9 2174.6L1948.64 2142.11C1955.13 2130.86 1953.44 2122.12 1944.66 2117.06C1935.23 2111.61 1924.93 2116.15 1918.31 2127.61L1900.83 2157.85L1891.62 2152.53L1924.71 2095.21L1932.67 2099.84L1929.39 2108.41C1934.84 2105.98 1942.19 2104.43 1951.06 2109.53C1959.02 2114.12 1963.82 2121.69 1962.87 2130.86C1969.92 2126.71 1978.83 2125.54 1989.04 2131.42C2000.94 2138.3 2006.78 2150.8 1996.31 2168.89L1996.4 2168.93Z" fill="#0057FF"/>
<path d="M2047.63 2231.31L2042.78 2239.75L2037.72 2236.81C2030.06 2232.39 2029.37 2227.63 2032.48 2221.97C2025.91 2225.08 2017.65 2226.12 2007.74 2220.41C1995.15 2213.14 1990.26 2201.94 1996.28 2191.47C2002.89 2180 2014.58 2178.19 2029.63 2186.88L2046.5 2196.62L2048.75 2192.68C2053.03 2185.28 2050.35 2177.71 2041.35 2172.52C2033.26 2167.85 2025.65 2168.54 2021.15 2173.73L2011.94 2168.41C2019.77 2157.94 2032.7 2156.56 2046.54 2164.56C2061.17 2173 2065.36 2185.15 2057.66 2198.56L2043.21 2223.61C2041.44 2226.64 2042.13 2228.07 2044.73 2229.58L2047.67 2231.27L2047.63 2231.31ZM2042.05 2204.4L2024.31 2194.15C2016.09 2189.43 2009.73 2189.78 2005.97 2196.31C2002.72 2201.94 2005.36 2208.56 2012.97 2212.97C2024.44 2219.59 2034.91 2216.78 2040.4 2207.22L2042.05 2204.4Z" fill="#0057FF"/>
<path d="M2112.04 2203.32L2106.84 2212.32L2102.22 2209.64C2090.19 2202.72 2081.15 2210.81 2075.91 2219.94L2059.04 2249.14L2049.83 2243.82L2082.92 2186.5L2090.88 2191.08L2087.12 2200.47C2092.35 2197.66 2099.19 2195.88 2109.44 2201.81L2112.04 2203.28V2203.32Z" fill="#0057FF"/>
<path d="M2121.33 2219.93L2110.99 2213.96L2115.84 2205.53L2126.18 2211.5L2135.44 2195.4L2144.65 2200.72L2135.35 2216.77L2150.19 2225.34L2145.34 2233.78L2130.5 2225.21L2110.99 2259.04C2108.22 2263.89 2108.83 2266.66 2113.8 2269.51L2122.89 2274.75L2118.04 2283.18L2108.05 2277.43C2097.02 2271.07 2095.9 2263.97 2101.74 2253.85L2121.33 2219.89V2219.93Z" fill="#0057FF"/>
<path d="M2198.99 2291.75C2188.87 2309.27 2170.35 2314.33 2154.52 2305.2C2144.87 2299.62 2140.59 2291.92 2140.29 2284.39L2122.25 2315.63L2113.03 2310.31L2159.11 2230.49L2167.07 2235.07L2162.96 2244.98C2169.83 2241.91 2178.66 2240.87 2188.35 2246.45C2204.18 2255.58 2209.72 2273.01 2198.95 2291.7L2198.99 2291.75ZM2189.56 2286.3C2196.79 2273.84 2194.1 2260.77 2182.77 2254.2C2171.52 2247.71 2158.89 2251.95 2151.84 2264.19C2144.57 2276.78 2147.17 2289.97 2158.37 2296.46C2169.7 2302.99 2182.38 2298.76 2189.56 2286.3Z" fill="#0057FF"/>
<path d="M2262.8 2324.24L2244.37 2356.17L2235.15 2350.85L2253.24 2319.48C2260.11 2307.58 2257.99 2297.98 2248.13 2292.27C2237.45 2286.13 2226.2 2290.24 2218.76 2303.17L2202.23 2331.81L2193.02 2326.49L2238.44 2247.8L2247.65 2253.12L2229.87 2283.92C2236.36 2280.46 2244.93 2279.12 2254.62 2284.7C2267.42 2292.1 2273.78 2305.21 2262.84 2324.2L2262.8 2324.24Z" fill="#0057FF"/>
<path d="M2270.02 2332.76C2280.05 2315.33 2298.65 2310.18 2315.4 2319.83C2332.14 2329.47 2336.94 2348.16 2326.9 2365.6C2316.82 2383.03 2298.27 2388.18 2281.52 2378.53C2264.78 2368.89 2259.98 2350.2 2270.02 2332.76ZM2317.43 2360.15C2324.48 2347.9 2321.97 2334.62 2310.64 2328.05C2299.3 2321.47 2286.5 2325.97 2279.45 2338.21C2272.35 2350.46 2274.9 2363.74 2286.24 2370.31C2297.57 2376.89 2310.38 2372.39 2317.43 2360.15Z" fill="#0057FF"/>
<path d="M2390.59 2398L2372.16 2429.93L2362.94 2424.61L2381.07 2393.24C2387.95 2381.34 2386.09 2371.87 2376.05 2366.07C2365.28 2359.84 2354.12 2364.04 2346.68 2376.98L2330.11 2405.61L2320.89 2400.29L2353.99 2342.97L2361.95 2347.56L2358.7 2356.04C2364.59 2353.61 2372.81 2352.92 2382.45 2358.5C2395.39 2365.99 2401.53 2378.97 2390.54 2397.96L2390.59 2398Z" fill="#0057FF"/>
<path d="M2397.81 2406.52C2407.89 2389.09 2425.76 2383.55 2441.94 2392.9C2458.12 2402.24 2462.79 2418.55 2453.44 2435.81C2452.71 2437.07 2451.84 2438.32 2450.94 2439.62L2406.42 2413.92L2405.94 2414.7C2399.97 2425.82 2402.44 2437.41 2413.34 2443.69C2421.43 2448.36 2430.21 2447.71 2436.4 2441.39L2445.74 2446.8C2436.88 2456.97 2422.56 2459.95 2409.32 2452.29C2392.14 2442.39 2387.69 2424.09 2397.81 2406.52ZM2445.7 2426.38C2450.5 2415.95 2446.96 2406.57 2437.39 2401.07C2428.96 2396.23 2417.71 2397.78 2411.44 2406.61L2445.7 2426.38Z" fill="#0057FF"/>
<path d="M2464.01 2457.79C2460.46 2464.71 2463.58 2473.1 2473.09 2478.64C2481.18 2483.31 2488.93 2483.14 2492 2477.86C2496.15 2470.68 2490.18 2466.49 2482.22 2460.52C2470.32 2451.56 2461.59 2443.04 2468.46 2431.14C2474.52 2420.67 2488.02 2419.33 2500.87 2426.9C2513.84 2434.56 2519.77 2446.07 2513.8 2458.48L2504.37 2453.03C2507.05 2446.8 2504.2 2439.32 2496.32 2434.77C2488.36 2430.15 2481.01 2430.41 2477.94 2435.68C2474.3 2442 2479.93 2446.28 2487.67 2452.08C2499.78 2461.16 2508.83 2469.69 2501.47 2482.41C2495.33 2493.09 2481.27 2493.83 2468.55 2486.47C2453.71 2477.91 2447.53 2465.01 2454.53 2452.34L2463.97 2457.79H2464.01Z" fill="#0057FF"/>
<path d="M1921.51 1893.26C1928.65 1866.7 1949.89 1853.03 1975.33 1859.86C1994.75 1865.06 2005.91 1880.15 2004.27 1899.19L1992.72 1896.12C1992.59 1883.05 1985.28 1873.28 1972.09 1869.77C1953.66 1864.84 1938.04 1875.96 1932.59 1896.29C1927.18 1916.45 1934.58 1933.93 1953.01 1938.86C1966.55 1942.49 1977.88 1937.87 1984.41 1926.44L1995.96 1929.52C1987.83 1946.82 1970.27 1954.22 1950.45 1948.9C1925.28 1942.15 1914.25 1920.13 1921.43 1893.31L1921.51 1893.26Z" fill="#0057FF"/>
<path d="M2023.52 1873.54L2033.82 1876.3L2010.28 1964.04L1999.99 1961.27L2023.52 1873.54Z" fill="#0057FF"/>
<path d="M2041.44 1903.9L2051.73 1906.67L2034.6 1970.61L2024.31 1967.84L2041.44 1903.9ZM2044.73 1886.12C2045.76 1882.23 2049.4 1880.24 2053.16 1881.28C2056.93 1882.27 2059.05 1885.82 2058.01 1889.71C2056.97 1893.61 2053.33 1895.6 2049.57 1894.56C2045.81 1893.56 2043.69 1890.02 2044.73 1886.12Z" fill="#0057FF"/>
<path d="M2054.93 1941.76C2060.12 1922.33 2076 1912.34 2094.04 1917.18C2112.08 1922.03 2120.82 1936.61 2116.23 1955.64C2115.84 1957.03 2115.32 1958.5 2114.81 1959.97L2065.14 1946.69L2064.93 1947.55C2062.03 1959.8 2067.39 1970.4 2079.55 1973.64C2088.59 1976.06 2096.85 1973.17 2101.22 1965.47L2111.65 1968.23C2105.72 1980.35 2092.66 1986.92 2077.86 1982.99C2058.7 1977.84 2049.66 1961.31 2054.93 1941.76ZM2106.33 1948.55C2108.27 1937.26 2102.39 1929.08 2091.75 1926.23C2082.36 1923.72 2071.89 1928.17 2068.08 1938.3L2106.33 1948.55Z" fill="#0057FF"/>
<path d="M2185.54 1972.86L2175.98 2008.47L2165.68 2005.7L2175.07 1970.74C2178.62 1957.46 2174.38 1948.77 2163.21 1945.78C2151.19 1942.54 2141.54 1949.5 2137.65 1963.91L2129.08 1995.88L2118.79 1993.11L2135.92 1929.17L2144.83 1931.55L2143.88 1940.55C2148.94 1936.65 2156.68 1933.89 2167.45 1936.78C2181.86 1940.63 2191.16 1951.58 2185.49 1972.78L2185.54 1972.86Z" fill="#0057FF"/>
<path d="M2208.55 1958.72L2197 1955.64L2199.51 1946.26L2211.06 1949.33L2215.86 1931.42L2226.15 1934.19L2221.35 1952.1L2237.88 1956.55L2235.37 1965.94L2218.84 1961.48L2208.72 1999.21C2207.29 2004.62 2208.63 2007.13 2214.13 2008.6L2224.29 2011.32L2221.78 2020.71L2210.62 2017.72C2198.34 2014.44 2195.4 2007.86 2198.42 1996.57L2208.55 1958.72Z" fill="#0057FF"/>
<path d="M603.062 1648.47C621.714 1648.47 633.971 1659.66 633.971 1677.12C633.971 1694.57 621.714 1705.89 603.062 1705.89H578.814V1741.73H567.223V1648.47H603.062ZM578.814 1659.13V1695.23H601.996C614.253 1695.23 622.113 1688.17 622.113 1677.12C622.113 1666.06 614.386 1659.13 602.129 1659.13H578.814ZM672.525 1732.81C685.981 1732.81 695.04 1722.28 695.04 1707.76C695.04 1693.24 685.981 1682.71 672.525 1682.71C659.069 1682.71 650.009 1693.24 650.009 1707.76C650.009 1722.28 659.069 1732.81 672.525 1732.81ZM672.525 1742.53C652.674 1742.53 638.818 1728.41 638.818 1707.76C638.818 1687.11 652.674 1672.99 672.525 1672.99C692.376 1672.99 706.232 1687.11 706.232 1707.76C706.232 1728.41 692.376 1742.53 672.525 1742.53ZM710.152 1673.78H721.61L738.53 1729.07L756.383 1673.78H766.508L783.428 1729.07L801.147 1673.78H812.205L789.557 1741.73H777.566L761.179 1691.24L744.126 1741.73H732.135L710.152 1673.78ZM849.859 1742.53C829.475 1742.53 816.152 1728.54 816.152 1707.76C816.152 1687.11 829.209 1672.99 848.394 1672.99C867.578 1672.99 880.102 1685.11 880.635 1705.23C880.635 1706.69 880.502 1708.29 880.368 1709.89H827.61V1710.82C828.01 1723.75 836.136 1732.81 849.06 1732.81C858.652 1732.81 866.113 1727.74 868.378 1718.95H879.436C876.771 1732.54 865.58 1742.53 849.859 1742.53ZM868.911 1700.83C867.845 1689.11 859.851 1682.58 848.527 1682.58C838.535 1682.58 829.342 1689.77 828.276 1700.83H868.911ZM893.101 1673.78H902.56L904.026 1684.04C907.223 1678.85 912.419 1673.78 924.543 1673.78H927.607V1684.44H922.145C907.889 1684.44 904.026 1696.3 904.026 1707.09V1741.73H893.101V1673.78ZM937.077 1673.78H948.001V1741.73H937.077V1673.78ZM942.539 1662.19C938.675 1662.19 935.611 1659.26 935.611 1655.27C935.611 1651.27 938.675 1648.34 942.539 1648.34C946.403 1648.34 949.467 1651.27 949.467 1655.27C949.467 1659.26 946.403 1662.19 942.539 1662.19ZM962.968 1673.78H972.427L973.893 1682.98C977.889 1677.78 984.817 1672.99 996.275 1672.99C1011.6 1672.99 1023.72 1681.38 1023.72 1703.89V1741.73H1012.8V1704.56C1012.8 1690.44 1006.27 1682.98 994.41 1682.98C981.62 1682.98 973.893 1692.44 973.893 1707.76V1741.73H962.968V1673.78ZM1048.44 1746.13C1050.31 1754.65 1057.9 1759.45 1069.22 1759.45C1083.48 1759.45 1091.21 1752.79 1091.21 1738V1730.01C1086.68 1737.73 1079.35 1742.53 1067.89 1742.53C1049.11 1742.53 1035.25 1729.87 1035.25 1707.76C1035.25 1686.97 1049.11 1672.99 1067.89 1672.99C1079.35 1672.99 1086.94 1677.92 1091.21 1685.51L1092.67 1673.78H1102.13V1738.4C1102.13 1757.99 1091.74 1769.18 1068.42 1769.18C1051.1 1769.18 1038.98 1761.05 1037.25 1746.13H1048.44ZM1091.34 1708.02C1091.34 1693.1 1082.28 1682.71 1068.96 1682.71C1055.5 1682.71 1046.44 1692.97 1046.44 1707.76C1046.44 1722.55 1055.5 1732.81 1068.96 1732.81C1082.28 1732.81 1091.34 1722.55 1091.34 1708.02ZM1156.94 1724.01V1683.78H1144.69V1673.78H1156.94V1654.73H1167.87V1673.78H1185.45V1683.78H1167.87V1723.88C1167.87 1729.61 1169.87 1731.74 1175.73 1731.74H1186.52V1741.73H1174.66C1161.61 1741.73 1156.94 1736 1156.94 1724.01ZM1195.99 1648.47H1206.91V1684.98C1210.91 1678.58 1217.84 1672.99 1229.29 1672.99C1244.48 1672.99 1256.87 1681.38 1256.87 1703.89V1741.73H1245.95V1704.56C1245.95 1690.44 1239.15 1682.98 1227.43 1682.98C1214.77 1682.98 1206.91 1692.44 1206.91 1707.76V1741.73H1195.99V1648.47ZM1301.33 1742.53C1280.94 1742.53 1267.62 1728.54 1267.62 1707.76C1267.62 1687.11 1280.68 1672.99 1299.86 1672.99C1319.05 1672.99 1331.57 1685.11 1332.1 1705.23C1332.1 1706.69 1331.97 1708.29 1331.84 1709.89H1279.08V1710.82C1279.48 1723.75 1287.6 1732.81 1300.53 1732.81C1310.12 1732.81 1317.58 1727.74 1319.84 1718.95H1330.9C1328.24 1732.54 1317.05 1742.53 1301.33 1742.53ZM1320.38 1700.83C1319.31 1689.11 1311.32 1682.58 1299.99 1682.58C1290 1682.58 1280.81 1689.77 1279.74 1700.83H1320.38ZM1373.04 1673.78H1384.5L1401.42 1729.07L1419.27 1673.78H1429.4L1446.32 1729.07L1464.04 1673.78H1475.09L1452.45 1741.73H1440.46L1424.07 1691.24L1407.01 1741.73H1395.02L1373.04 1673.78ZM1512.75 1732.81C1526.2 1732.81 1535.26 1722.28 1535.26 1707.76C1535.26 1693.24 1526.2 1682.71 1512.75 1682.71C1499.29 1682.71 1490.23 1693.24 1490.23 1707.76C1490.23 1722.28 1499.29 1732.81 1512.75 1732.81ZM1512.75 1742.53C1492.9 1742.53 1479.04 1728.41 1479.04 1707.76C1479.04 1687.11 1492.9 1672.99 1512.75 1672.99C1532.6 1672.99 1546.45 1687.11 1546.45 1707.76C1546.45 1728.41 1532.6 1742.53 1512.75 1742.53ZM1558.98 1673.78H1568.44L1569.91 1684.04C1573.1 1678.85 1578.3 1673.78 1590.42 1673.78H1593.49V1684.44H1588.03C1573.77 1684.44 1569.91 1696.3 1569.91 1707.09V1741.73H1558.98V1673.78ZM1602.96 1648.47H1613.88V1741.73H1602.96V1648.47ZM1682.41 1648.47H1693.33V1741.73H1683.87L1682.41 1730.81C1677.88 1737.07 1670.55 1742.53 1659.09 1742.53C1640.31 1742.53 1626.45 1729.87 1626.45 1707.76C1626.45 1686.97 1640.31 1672.99 1659.09 1672.99C1670.55 1672.99 1678.28 1677.65 1682.41 1684.18V1648.47ZM1660.16 1682.71C1646.7 1682.71 1637.64 1692.97 1637.64 1707.76C1637.64 1722.55 1646.7 1732.81 1660.16 1732.81C1673.48 1732.81 1682.54 1722.55 1682.54 1708.02C1682.54 1693.1 1673.48 1682.71 1660.16 1682.71ZM1713.14 1647.67C1719.67 1647.67 1723.67 1653.93 1723.67 1661.26C1723.67 1672.59 1716.61 1679.38 1704.88 1679.65V1673.39C1713.41 1673.25 1716.07 1667.26 1716.07 1662.73C1716.07 1662.06 1716.07 1661.53 1715.94 1661C1714.88 1662.06 1713.01 1662.59 1711.41 1662.59C1707.41 1662.59 1704.35 1660.2 1704.35 1655.4C1704.35 1651 1707.55 1647.67 1713.14 1647.67ZM1760.5 1742.53C1742.92 1742.53 1730.79 1734.27 1730.53 1719.35H1741.72C1742.12 1727.34 1749.18 1733.2 1760.5 1733.2C1770.1 1733.2 1776.89 1729.07 1776.89 1722.81C1776.89 1714.29 1769.43 1713.62 1759.3 1712.42C1744.12 1710.56 1731.99 1707.49 1731.99 1693.37C1731.99 1680.98 1743.32 1672.99 1758.64 1672.99C1774.09 1672.99 1785.28 1680.31 1786.35 1694.44H1775.16C1774.36 1687.51 1767.96 1682.31 1758.64 1682.31C1749.18 1682.31 1742.78 1686.31 1742.78 1692.57C1742.78 1700.03 1749.98 1700.96 1759.84 1702.16C1775.29 1704.03 1787.68 1706.96 1787.68 1722.01C1787.68 1734.67 1775.56 1742.53 1760.5 1742.53Z" fill="white"/>
<path d="M1973.15 1648.47H2045.23V1659.13H2014.99V1741.73H2003.4V1659.13H1973.15V1648.47ZM2074.7 1742.53C2054.32 1742.53 2040.99 1728.54 2040.99 1707.76C2040.99 1687.11 2054.05 1672.99 2073.24 1672.99C2092.42 1672.99 2104.94 1685.11 2105.48 1705.23C2105.48 1706.69 2105.34 1708.29 2105.21 1709.89H2052.45V1710.82C2052.85 1723.75 2060.98 1732.81 2073.9 1732.81C2083.49 1732.81 2090.96 1727.74 2093.22 1718.95H2104.28C2101.61 1732.54 2090.42 1742.53 2074.7 1742.53ZM2093.75 1700.83C2092.69 1689.11 2084.69 1682.58 2073.37 1682.58C2063.38 1682.58 2054.18 1689.77 2053.12 1700.83H2093.75ZM2148.45 1742.53C2128.6 1742.53 2115.55 1729.07 2115.55 1707.89C2115.55 1687.11 2129 1672.99 2148.72 1672.99C2165.37 1672.99 2175.9 1682.31 2178.7 1697.23H2167.24C2165.24 1688.17 2158.58 1682.71 2148.59 1682.71C2135.53 1682.71 2126.74 1693.1 2126.74 1707.89C2126.74 1722.68 2135.53 1732.81 2148.59 1732.81C2158.31 1732.81 2164.97 1727.21 2167.1 1718.55H2178.7C2176.03 1733.2 2164.97 1742.53 2148.45 1742.53ZM2190.67 1648.47H2201.6V1684.98C2205.59 1678.58 2212.52 1672.99 2223.98 1672.99C2239.17 1672.99 2251.56 1681.38 2251.56 1703.89V1741.73H2240.63V1704.56C2240.63 1690.44 2233.84 1682.98 2222.11 1682.98C2209.46 1682.98 2201.6 1692.44 2201.6 1707.76V1741.73H2190.67V1648.47Z" fill="url(#paint1_linear_2018_1024)"/>
</g>
<defs>
<linearGradient id="paint0_linear_2018_1024" x1="1830" y1="0" x2="1830" y2="3456" gradientUnits="userSpaceOnUse">
<stop stop-color="#06060A"/>
<stop offset="1" stop-color="#0E0235"/>
</linearGradient>
<linearGradient id="paint1_linear_2018_1024" x1="1423" y1="1698.73" x2="2737" y2="1698.73" gradientUnits="userSpaceOnUse">
<stop stop-color="#07E9EA"/>
<stop offset="1" stop-color="#0057FF"/>
</linearGradient>
<clipPath id="clip0_2018_1024">
<rect width="3072" height="3456" fill="white"/>
</clipPath>
</defs>
</svg>
