<svg width="11" height="10" viewBox="0 0 11 10" fill="none" xmlns="http://www.w3.org/2000/svg">
<path fill-rule="evenodd" clip-rule="evenodd" d="M8.4621 0.306745C8.55439 0.214487 8.67954 0.162659 8.81003 0.162659C8.94053 0.162659 9.06568 0.214487 9.15796 0.306745L9.50589 0.654675C9.59815 0.746961 9.64998 0.872111 9.64998 1.0026C9.64998 1.1331 9.59815 1.25825 9.50589 1.35053L9.39123 1.4652L9.99752 2.07149C10.0872 2.16431 10.1368 2.28862 10.1356 2.41765C10.1345 2.54668 10.0828 2.67011 9.99153 2.76136C9.90028 2.8526 9.77685 2.90436 9.64782 2.90548C9.51879 2.9066 9.39448 2.857 9.30166 2.76735L8.69537 2.16155L7.9749 2.88202L8.58071 3.48831C8.67296 3.5806 8.72479 3.70575 8.72479 3.83624C8.72479 3.96673 8.67296 4.09188 8.58071 4.18417L8.23278 4.5321C8.14049 4.62436 8.01534 4.67619 7.88485 4.67619C7.75435 4.67619 7.6292 4.62436 7.53692 4.5321L6.93013 3.92531L6.22295 4.63397C6.70495 5.2518 6.9434 6.02507 6.89305 6.80706C6.8427 7.58905 6.50707 8.32536 5.94983 8.87628C5.39258 9.42721 4.6525 9.75443 3.86998 9.79586C3.08747 9.83728 2.31697 9.59004 1.70467 9.10103C1.09237 8.61202 0.680869 7.91527 0.548237 7.14296C0.415604 6.37066 0.57107 5.57654 0.985137 4.91127C1.3992 4.24599 2.04307 3.75585 2.79457 3.53383C3.54606 3.31181 4.35292 3.37337 5.06204 3.70681L8.4621 0.306745ZM3.70182 8.32488C3.92801 8.32488 4.15198 8.28032 4.36096 8.19376C4.56993 8.1072 4.75981 7.98033 4.91975 7.82039C5.0797 7.66045 5.20657 7.47057 5.29313 7.2616C5.37969 7.05262 5.42424 6.82864 5.42424 6.60245C5.42424 6.37626 5.37969 6.15228 5.29313 5.94331C5.20657 5.73433 5.0797 5.54446 4.91975 5.38451C4.75981 5.22457 4.56993 5.0977 4.36096 5.01114C4.15198 4.92458 3.92801 4.88003 3.70182 4.88003C3.245 4.88003 2.8069 5.0615 2.48388 5.38451C2.16086 5.70753 1.97939 6.14564 1.97939 6.60245C1.97939 7.05927 2.16086 7.49737 2.48388 7.82039C2.8069 8.14341 3.245 8.32488 3.70182 8.32488Z" fill="#00D992"/>
</svg>
